# xmcd
#
# Track frame offsets:
#	150
#	15930
#	43372
#	80512
#
# Disc length: 2115 seconds
#
# Revision: 2
# Processed by: cddbd v1.5.1PL0 Copyright (c) Steve Scherf et al.
# Submitted via: EasyCDDAExtractor 7.0.6.1
#
DISCID=26084104
DTITLE=Shaft - (Mucho Mambo) Sway
DYEAR=1999
DGENRE=Dance
TTITLE0=(Mucho Mambo) Sway Radio Edit
TTITLE1=(Mucho Mambo) Sway Johan S Toxic Club Mix
TTITLE2=Skeewiff's Salsa Splash
TTITLE3=Video CD-Rom
EXTD=YEAR: 1999
EXTT0=
EXTT1=
EXTT2=
EXTT3=
PLAYORDER=
